<mxfile host="app.diagrams.net" agent="Mozilla/5.0 (Windows NT 10.0; Win64; x64) AppleWebKit/537.36 (KHTML, like Gecko) Chrome/131.0.0.0 Safari/537.36" version="25.0.3">
  <diagram name="หน้า-1" id="WD2QL5US_MFfZTGHRSg6">
    <mxGraphModel dx="525" dy="285" grid="1" gridSize="10" guides="1" tooltips="1" connect="1" arrows="1" fold="1" page="1" pageScale="1" pageWidth="827" pageHeight="1169" math="0" shadow="0">
      <root>
        <mxCell id="0" />
        <mxCell id="1" parent="0" />
        <mxCell id="5Gi9SJCjBN-Mf_EN90ED-2" value="ATM RMUTT" style="swimlane;whiteSpace=wrap;html=1;" parent="1" vertex="1">
          <mxGeometry x="60" y="110" width="760" height="430" as="geometry" />
        </mxCell>
        <mxCell id="5Gi9SJCjBN-Mf_EN90ED-5" value="checkBalance" style="ellipse;whiteSpace=wrap;html=1;" parent="5Gi9SJCjBN-Mf_EN90ED-2" vertex="1">
          <mxGeometry x="46" y="60" width="120" height="30" as="geometry" />
        </mxCell>
        <mxCell id="5Gi9SJCjBN-Mf_EN90ED-6" value="withdraw" style="ellipse;whiteSpace=wrap;html=1;" parent="5Gi9SJCjBN-Mf_EN90ED-2" vertex="1">
          <mxGeometry x="46" y="100" width="120" height="30" as="geometry" />
        </mxCell>
        <mxCell id="5Gi9SJCjBN-Mf_EN90ED-7" value="deposit" style="ellipse;whiteSpace=wrap;html=1;" parent="5Gi9SJCjBN-Mf_EN90ED-2" vertex="1">
          <mxGeometry x="46" y="140" width="120" height="30" as="geometry" />
        </mxCell>
        <mxCell id="5Gi9SJCjBN-Mf_EN90ED-8" value="transfer" style="ellipse;whiteSpace=wrap;html=1;" parent="5Gi9SJCjBN-Mf_EN90ED-2" vertex="1">
          <mxGeometry x="46" y="180" width="120" height="30" as="geometry" />
        </mxCell>
        <mxCell id="5Gi9SJCjBN-Mf_EN90ED-9" value="login" style="ellipse;whiteSpace=wrap;html=1;" parent="5Gi9SJCjBN-Mf_EN90ED-2" vertex="1">
          <mxGeometry x="340" y="240" width="120" height="30" as="geometry" />
        </mxCell>
        <mxCell id="5Gi9SJCjBN-Mf_EN90ED-10" value="handle invalid account and password" style="ellipse;whiteSpace=wrap;html=1;" parent="5Gi9SJCjBN-Mf_EN90ED-2" vertex="1">
          <mxGeometry x="570" y="235" width="184" height="40" as="geometry" />
        </mxCell>
        <mxCell id="5Gi9SJCjBN-Mf_EN90ED-11" value="addAccount" style="ellipse;whiteSpace=wrap;html=1;" parent="5Gi9SJCjBN-Mf_EN90ED-2" vertex="1">
          <mxGeometry x="56" y="310" width="120" height="30" as="geometry" />
        </mxCell>
        <mxCell id="5Gi9SJCjBN-Mf_EN90ED-13" value="checkAccount" style="ellipse;whiteSpace=wrap;html=1;" parent="5Gi9SJCjBN-Mf_EN90ED-2" vertex="1">
          <mxGeometry x="56" y="360" width="120" height="30" as="geometry" />
        </mxCell>
        <mxCell id="5Gi9SJCjBN-Mf_EN90ED-17" value="&amp;lt;&amp;lt;include&amp;gt;&amp;gt;" style="endArrow=open;endSize=12;dashed=1;html=1;rounded=0;entryX=0;entryY=0.5;entryDx=0;entryDy=0;exitX=1;exitY=0.5;exitDx=0;exitDy=0;" parent="5Gi9SJCjBN-Mf_EN90ED-2" source="5Gi9SJCjBN-Mf_EN90ED-5" target="5Gi9SJCjBN-Mf_EN90ED-9" edge="1">
          <mxGeometry x="-0.5819" width="160" relative="1" as="geometry">
            <mxPoint x="140" y="250" as="sourcePoint" />
            <mxPoint x="234" y="280" as="targetPoint" />
            <Array as="points">
              <mxPoint x="310" y="75" />
              <mxPoint x="310" y="255" />
            </Array>
            <mxPoint as="offset" />
          </mxGeometry>
        </mxCell>
        <mxCell id="5Gi9SJCjBN-Mf_EN90ED-18" value="&amp;lt;&amp;lt;include&amp;gt;&amp;gt;" style="endArrow=open;endSize=12;dashed=1;html=1;rounded=0;exitX=1;exitY=0.5;exitDx=0;exitDy=0;entryX=0;entryY=0.5;entryDx=0;entryDy=0;" parent="5Gi9SJCjBN-Mf_EN90ED-2" source="5Gi9SJCjBN-Mf_EN90ED-6" target="5Gi9SJCjBN-Mf_EN90ED-9" edge="1">
          <mxGeometry x="-0.4933" width="160" relative="1" as="geometry">
            <mxPoint x="234" y="280" as="sourcePoint" />
            <mxPoint x="340" y="260" as="targetPoint" />
            <Array as="points">
              <mxPoint x="310" y="115" />
              <mxPoint x="310" y="255" />
            </Array>
            <mxPoint as="offset" />
          </mxGeometry>
        </mxCell>
        <mxCell id="y74tTk_djHRh3TUERgz0-2" value="&amp;lt;&amp;lt;include&amp;gt;&amp;gt;" style="endArrow=open;endSize=12;dashed=1;html=1;rounded=0;exitX=1;exitY=0.5;exitDx=0;exitDy=0;" edge="1" parent="5Gi9SJCjBN-Mf_EN90ED-2" source="5Gi9SJCjBN-Mf_EN90ED-7">
          <mxGeometry x="-0.4599" width="160" relative="1" as="geometry">
            <mxPoint x="140" y="254.67000000000002" as="sourcePoint" />
            <mxPoint x="340" y="255" as="targetPoint" />
            <Array as="points">
              <mxPoint x="310" y="155" />
              <mxPoint x="310" y="255" />
            </Array>
            <mxPoint as="offset" />
          </mxGeometry>
        </mxCell>
        <mxCell id="y74tTk_djHRh3TUERgz0-3" value="&amp;lt;&amp;lt;include&amp;gt;&amp;gt;" style="endArrow=open;endSize=12;dashed=1;html=1;rounded=0;exitX=1;exitY=0.5;exitDx=0;exitDy=0;entryX=0;entryY=0.5;entryDx=0;entryDy=0;" edge="1" parent="5Gi9SJCjBN-Mf_EN90ED-2" source="5Gi9SJCjBN-Mf_EN90ED-8" target="5Gi9SJCjBN-Mf_EN90ED-9">
          <mxGeometry x="-0.3675" width="160" relative="1" as="geometry">
            <mxPoint x="274" y="320" as="sourcePoint" />
            <mxPoint x="340" y="260" as="targetPoint" />
            <Array as="points">
              <mxPoint x="310" y="195" />
              <mxPoint x="310" y="255" />
            </Array>
            <mxPoint as="offset" />
          </mxGeometry>
        </mxCell>
        <mxCell id="y74tTk_djHRh3TUERgz0-4" value="&amp;lt;&amp;lt;include&amp;gt;&amp;gt;" style="endArrow=open;endSize=12;dashed=1;html=1;rounded=0;exitX=1;exitY=0.5;exitDx=0;exitDy=0;entryX=0;entryY=0.5;entryDx=0;entryDy=0;" edge="1" parent="5Gi9SJCjBN-Mf_EN90ED-2" source="5Gi9SJCjBN-Mf_EN90ED-11" target="5Gi9SJCjBN-Mf_EN90ED-9">
          <mxGeometry x="-0.453" width="160" relative="1" as="geometry">
            <mxPoint x="284" y="330" as="sourcePoint" />
            <mxPoint x="444" y="330" as="targetPoint" />
            <Array as="points">
              <mxPoint x="310" y="325" />
              <mxPoint x="310" y="255" />
            </Array>
            <mxPoint as="offset" />
          </mxGeometry>
        </mxCell>
        <mxCell id="y74tTk_djHRh3TUERgz0-5" value="&amp;lt;&amp;lt;include&amp;gt;&amp;gt;" style="endArrow=open;endSize=12;dashed=1;html=1;rounded=0;exitX=1;exitY=0.5;exitDx=0;exitDy=0;entryX=0;entryY=0.5;entryDx=0;entryDy=0;" edge="1" parent="5Gi9SJCjBN-Mf_EN90ED-2" source="5Gi9SJCjBN-Mf_EN90ED-13" target="5Gi9SJCjBN-Mf_EN90ED-9">
          <mxGeometry x="-0.5493" width="160" relative="1" as="geometry">
            <mxPoint x="294" y="340" as="sourcePoint" />
            <mxPoint x="340" y="250" as="targetPoint" />
            <Array as="points">
              <mxPoint x="310" y="375" />
              <mxPoint x="310" y="255" />
            </Array>
            <mxPoint as="offset" />
          </mxGeometry>
        </mxCell>
        <mxCell id="y74tTk_djHRh3TUERgz0-6" value="extend" style="endArrow=open;endSize=12;dashed=1;html=1;rounded=0;exitX=0;exitY=0.5;exitDx=0;exitDy=0;entryX=1;entryY=0.5;entryDx=0;entryDy=0;" edge="1" parent="5Gi9SJCjBN-Mf_EN90ED-2" source="5Gi9SJCjBN-Mf_EN90ED-10" target="5Gi9SJCjBN-Mf_EN90ED-9">
          <mxGeometry width="160" relative="1" as="geometry">
            <mxPoint x="304" y="350" as="sourcePoint" />
            <mxPoint x="464" y="350" as="targetPoint" />
          </mxGeometry>
        </mxCell>
        <mxCell id="5Gi9SJCjBN-Mf_EN90ED-3" value="User" style="shape=umlActor;verticalLabelPosition=bottom;verticalAlign=top;html=1;outlineConnect=0;" parent="1" vertex="1">
          <mxGeometry x="10" y="190" width="30" height="60" as="geometry" />
        </mxCell>
        <mxCell id="5Gi9SJCjBN-Mf_EN90ED-4" value="Manager" style="shape=umlActor;verticalLabelPosition=bottom;verticalAlign=top;html=1;outlineConnect=0;" parent="1" vertex="1">
          <mxGeometry x="10" y="410" width="30" height="60" as="geometry" />
        </mxCell>
        <mxCell id="y74tTk_djHRh3TUERgz0-18" value="" style="endArrow=none;html=1;rounded=0;exitX=1;exitY=0.3333333333333333;exitDx=0;exitDy=0;exitPerimeter=0;entryX=0;entryY=0.5;entryDx=0;entryDy=0;" edge="1" parent="1" source="5Gi9SJCjBN-Mf_EN90ED-3" target="5Gi9SJCjBN-Mf_EN90ED-5">
          <mxGeometry width="50" height="50" relative="1" as="geometry">
            <mxPoint x="130" y="310" as="sourcePoint" />
            <mxPoint x="180" y="260" as="targetPoint" />
          </mxGeometry>
        </mxCell>
        <mxCell id="y74tTk_djHRh3TUERgz0-19" value="" style="endArrow=none;html=1;rounded=0;exitX=1;exitY=0.3333333333333333;exitDx=0;exitDy=0;exitPerimeter=0;entryX=0;entryY=0.5;entryDx=0;entryDy=0;" edge="1" parent="1" source="5Gi9SJCjBN-Mf_EN90ED-3" target="5Gi9SJCjBN-Mf_EN90ED-6">
          <mxGeometry width="50" height="50" relative="1" as="geometry">
            <mxPoint x="50" y="220" as="sourcePoint" />
            <mxPoint x="116" y="195" as="targetPoint" />
          </mxGeometry>
        </mxCell>
        <mxCell id="y74tTk_djHRh3TUERgz0-20" value="" style="endArrow=none;html=1;rounded=0;exitX=1;exitY=0.3333333333333333;exitDx=0;exitDy=0;exitPerimeter=0;entryX=0;entryY=0.5;entryDx=0;entryDy=0;" edge="1" parent="1" source="5Gi9SJCjBN-Mf_EN90ED-3" target="5Gi9SJCjBN-Mf_EN90ED-7">
          <mxGeometry width="50" height="50" relative="1" as="geometry">
            <mxPoint x="60" y="230" as="sourcePoint" />
            <mxPoint x="126" y="205" as="targetPoint" />
          </mxGeometry>
        </mxCell>
        <mxCell id="y74tTk_djHRh3TUERgz0-21" value="" style="endArrow=none;html=1;rounded=0;exitX=1;exitY=0.3333333333333333;exitDx=0;exitDy=0;exitPerimeter=0;entryX=0;entryY=0.5;entryDx=0;entryDy=0;" edge="1" parent="1" source="5Gi9SJCjBN-Mf_EN90ED-3" target="5Gi9SJCjBN-Mf_EN90ED-8">
          <mxGeometry width="50" height="50" relative="1" as="geometry">
            <mxPoint x="70" y="240" as="sourcePoint" />
            <mxPoint x="136" y="215" as="targetPoint" />
          </mxGeometry>
        </mxCell>
        <mxCell id="y74tTk_djHRh3TUERgz0-22" value="" style="endArrow=none;html=1;rounded=0;exitX=1;exitY=0.3333333333333333;exitDx=0;exitDy=0;exitPerimeter=0;entryX=0;entryY=0.5;entryDx=0;entryDy=0;" edge="1" parent="1" source="5Gi9SJCjBN-Mf_EN90ED-4" target="5Gi9SJCjBN-Mf_EN90ED-13">
          <mxGeometry width="50" height="50" relative="1" as="geometry">
            <mxPoint x="80" y="250" as="sourcePoint" />
            <mxPoint x="146" y="225" as="targetPoint" />
          </mxGeometry>
        </mxCell>
        <mxCell id="y74tTk_djHRh3TUERgz0-23" value="" style="endArrow=none;html=1;rounded=0;exitX=1;exitY=0.3333333333333333;exitDx=0;exitDy=0;exitPerimeter=0;entryX=0;entryY=0.5;entryDx=0;entryDy=0;" edge="1" parent="1" source="5Gi9SJCjBN-Mf_EN90ED-4" target="5Gi9SJCjBN-Mf_EN90ED-11">
          <mxGeometry width="50" height="50" relative="1" as="geometry">
            <mxPoint x="90" y="260" as="sourcePoint" />
            <mxPoint x="156" y="235" as="targetPoint" />
          </mxGeometry>
        </mxCell>
      </root>
    </mxGraphModel>
  </diagram>
</mxfile>
